<?xml version="1.0" standalone="no"?>
<!DOCTYPE svg PUBLIC "-//W3C//DTD SVG 20010904//EN"
 "http://www.w3.org/TR/2001/REC-SVG-20010904/DTD/svg10.dtd">
<svg version="1.0" xmlns="http://www.w3.org/2000/svg"
 width="1444.000000pt" height="1444.000000pt" viewBox="0 0 1444.000000 1444.000000"
 preserveAspectRatio="xMidYMid meet">
<metadata>
Created by potrace 1.11, written by Peter Selinger 2001-2013
</metadata>
<g transform="translate(0.000000,1444.000000) scale(0.100000,-0.100000)"
fill="#000000" stroke="none">
<path d="M3879 11356 c-2 -2 -47 -7 -99 -10 -52 -4 -113 -9 -135 -11 -22 -3
-58 -7 -80 -10 -48 -5 -101 -14 -133 -21 -13 -3 -43 -7 -65 -10 -23 -3 -49 -8
-57 -11 -8 -3 -30 -7 -47 -10 -18 -2 -74 -16 -125 -29 -51 -13 -102 -26 -113
-28 -20 -4 -180 -53 -258 -80 -38 -13 -82 -29 -142 -52 -11 -4 -22 -8 -25 -9
-3 -1 -18 -8 -35 -15 -16 -7 -32 -14 -35 -15 -3 -1 -18 -7 -35 -14 -16 -7 -31
-12 -32 -12 -1 0 -52 -25 -113 -54 -61 -30 -115 -55 -120 -55 -4 0 -10 -3 -12
-7 -1 -5 -34 -24 -73 -43 -38 -19 -74 -39 -80 -43 -5 -5 -27 -18 -47 -30 -79
-46 -183 -111 -188 -116 -3 -3 -27 -21 -55 -40 -55 -38 -189 -137 -220 -162
-257 -212 -455 -408 -630 -626 -5 -7 -17 -20 -25 -30 -8 -9 -54 -71 -102 -138
-49 -66 -92 -125 -98 -132 -5 -7 -10 -15 -10 -18 0 -3 -8 -18 -19 -33 -10 -15
-32 -49 -49 -77 -17 -27 -35 -55 -39 -60 -16 -21 -76 -133 -147 -275 -61 -123
-90 -188 -141 -315 -5 -11 -7 -23 -7 -27 1 -5 -2 -8 -6 -8 -5 0 -9 -6 -10 -12
-1 -7 -23 -77 -50 -155 -40 -115 -102 -327 -117 -402 -2 -9 -8 -36 -14 -61 -5
-24 -8 -46 -6 -49 3 -2 0 -10 -5 -17 -6 -6 -10 -16 -8 -20 1 -5 -1 -22 -5 -39
-3 -16 -9 -50 -12 -75 -3 -25 -10 -67 -15 -95 -24 -129 -35 -310 -34 -575 0
-256 10 -438 30 -540 4 -19 8 -51 10 -70 1 -19 5 -46 8 -60 3 -14 9 -41 11
-60 3 -19 8 -44 10 -55 2 -11 7 -36 10 -55 3 -19 11 -53 17 -75 5 -22 11 -47
13 -55 5 -25 36 -143 45 -175 35 -112 92 -283 101 -300 5 -12 11 -27 13 -35 1
-8 10 -33 19 -55 10 -22 36 -85 59 -140 23 -55 50 -112 61 -127 10 -16 15 -28
11 -28 -4 0 1 -9 10 -19 10 -11 18 -25 19 -33 2 -7 15 -35 30 -62 15 -27 27
-52 27 -57 0 -5 5 -9 10 -9 6 0 10 -6 10 -12 1 -7 16 -38 35 -68 19 -30 42
-71 52 -90 9 -19 22 -40 28 -47 29 -35 35 -43 35 -48 0 -6 109 -165 120 -175
3 -3 17 -23 33 -45 15 -22 39 -54 54 -72 16 -17 38 -44 50 -60 12 -15 34 -42
50 -60 15 -18 48 -55 73 -84 85 -97 278 -285 376 -368 16 -13 43 -36 59 -50
32 -27 71 -58 140 -110 22 -17 45 -35 50 -39 22 -18 295 -202 298 -200 1 1 13
-5 27 -14 94 -61 529 -278 556 -278 3 0 20 -6 37 -14 39 -17 249 -92 287 -101
3 -1 12 -5 20 -8 20 -8 128 -37 165 -43 17 -4 32 -9 35 -13 3 -4 14 -6 25 -6
11 0 38 -5 59 -12 22 -7 41 -11 44 -8 2 2 12 0 21 -5 9 -4 35 -11 57 -14 22
-4 51 -9 64 -11 37 -8 83 -15 121 -20 19 -2 48 -6 64 -9 57 -9 130 -17 215
-24 118 -8 558 -8 655 1 131 12 195 21 360 48 39 6 82 13 96 15 14 2 38 8 54
14 15 6 30 8 32 6 3 -3 16 -1 29 4 14 6 35 12 47 14 24 5 66 15 82 20 6 2 24
6 40 10 17 4 37 10 45 13 8 4 25 8 37 10 13 2 43 12 68 23 25 11 45 17 45 15
0 -5 83 24 185 65 11 5 42 16 68 26 26 9 50 21 53 25 3 5 13 9 23 9 20 0 450
214 486 243 6 4 57 37 115 73 58 36 114 74 126 85 11 10 23 19 27 19 9 0 131
92 135 102 2 5 8 8 13 8 5 0 17 8 28 17 21 20 99 85 111 93 50 32 280 258 401
392 l78 87 68 -76 c143 -159 320 -328 473 -452 25 -20 47 -38 50 -41 3 -3 34
-27 70 -53 36 -27 72 -53 80 -60 9 -7 36 -25 60 -42 25 -16 47 -33 50 -36 3
-3 29 -19 57 -35 29 -16 53 -32 53 -36 0 -5 4 -8 10 -8 5 0 35 -17 67 -37 63
-40 361 -193 463 -237 237 -104 624 -224 840 -261 19 -3 44 -7 55 -9 63 -12
103 -18 130 -21 17 -2 44 -6 60 -9 135 -22 264 -30 535 -30 216 -1 383 6 445
18 11 2 45 7 76 10 31 4 67 9 79 11 12 2 41 6 64 9 43 5 203 38 271 56 22 6
49 12 60 14 11 2 47 11 80 21 33 9 65 18 70 20 6 1 17 4 25 7 8 3 67 22 130
43 63 21 131 44 150 52 19 8 44 19 55 23 11 4 52 21 90 36 39 16 90 39 114 51
24 13 50 23 57 23 8 0 14 5 14 10 0 6 8 10 18 10 10 0 22 4 27 9 9 8 78 46
200 109 28 15 52 29 55 33 3 3 16 12 30 19 59 31 348 229 386 264 7 6 24 20
40 31 33 24 78 62 110 92 13 13 25 23 27 23 18 0 279 260 400 398 95 108 237
287 237 298 0 3 6 12 13 19 24 28 34 41 98 140 92 141 143 230 244 425 37 71
105 220 105 229 0 4 6 21 14 37 14 28 36 79 42 99 2 6 28 82 58 170 30 88 57
171 60 185 3 14 14 59 25 100 21 75 65 284 75 350 45 305 51 389 51 685 -1
266 -14 462 -41 605 -3 19 -7 52 -8 72 0 21 -4 38 -8 38 -5 0 -8 12 -8 28 0
15 -4 43 -9 62 -6 19 -12 49 -15 65 -3 17 -10 48 -15 70 -6 22 -13 54 -16 70
-4 17 -9 37 -12 45 -4 8 -7 23 -8 33 -2 9 -4 19 -5 22 -1 3 -3 8 -5 13 -1 4
-5 14 -8 22 -8 19 -37 122 -37 132 0 4 -9 28 -20 53 -11 25 -20 47 -20 50 -3
25 -99 263 -148 368 -28 59 -51 109 -50 110 0 1 -14 26 -31 55 -17 29 -31 55
-31 58 0 4 -42 76 -111 192 -36 60 -56 91 -104 161 -27 41 -54 81 -60 90 -5 9
-12 18 -15 21 -3 3 -28 34 -55 70 -27 36 -53 67 -57 68 -4 2 -8 10 -8 17 0 7
-3 15 -8 17 -4 2 -32 32 -62 67 -160 188 -363 388 -535 526 -104 84 -222 172
-272 205 -29 18 -53 37 -53 42 0 4 -8 8 -18 8 -11 0 -27 9 -37 20 -10 11 -24
20 -31 20 -7 0 -14 4 -16 8 -11 26 -585 322 -624 322 -3 0 -20 6 -37 14 -34
15 -67 28 -79 31 -5 2 -10 4 -13 5 -3 1 -8 3 -12 5 -5 1 -15 5 -23 8 -55 23
-264 86 -270 82 -5 -3 -11 -1 -14 4 -3 5 -23 12 -43 17 -43 9 -51 10 -58 14
-7 3 -13 5 -65 15 -25 5 -47 9 -50 10 -16 3 -86 19 -90 20 -4 1 -112 19 -180
31 -171 28 -331 38 -595 38 -224 0 -365 -6 -460 -20 -22 -3 -53 -7 -70 -9 -16
-1 -50 -6 -75 -9 -25 -4 -58 -9 -75 -11 -16 -2 -30 -4 -30 -5 0 -1 -9 -3 -19
-5 -106 -20 -241 -50 -286 -62 -30 -9 -62 -17 -70 -19 -31 -4 -293 -90 -360
-117 -14 -6 -27 -11 -30 -12 -7 -2 -61 -24 -80 -32 -8 -3 -17 -7 -20 -8 -3 -1
-18 -7 -35 -14 -16 -7 -32 -13 -35 -13 -7 -1 -349 -175 -385 -196 -73 -42
-119 -71 -250 -158 -77 -51 -153 -105 -169 -119 -16 -14 -32 -25 -35 -25 -3 0
-17 -10 -31 -23 -14 -12 -52 -44 -85 -71 -142 -115 -303 -268 -449 -428 l-78
-87 -27 32 c-56 66 -120 134 -231 242 -162 159 -191 185 -200 185 -5 0 -10 4
-12 8 -1 4 -41 39 -88 76 -47 38 -86 73 -88 78 -2 4 -8 8 -13 8 -5 0 -42 24
-82 53 -39 30 -106 75 -147 102 -41 26 -87 56 -102 67 -15 10 -39 23 -53 28
-14 5 -25 14 -25 20 0 5 -9 10 -19 10 -11 0 -22 4 -26 10 -3 5 -58 35 -123 67
-64 32 -118 61 -120 66 -2 4 -8 7 -14 7 -5 0 -32 11 -60 25 -27 14 -54 25 -59
25 -5 0 -35 13 -68 29 -32 15 -70 31 -83 34 -13 4 -42 14 -64 23 -21 10 -43
19 -49 20 -5 1 -53 16 -105 33 -84 28 -217 67 -260 76 -8 2 -16 4 -17 5 -2 2
-6 3 -10 4 -18 4 -90 18 -113 22 -14 3 -33 7 -42 10 -19 6 -43 11 -118 23
-130 23 -148 25 -265 36 -44 4 -89 9 -100 12 -24 6 -551 14 -556 9z"/>
</g>
</svg>
